<svg width="130" height="60" viewBox="0 0 130 60" fill="none" xmlns="http://www.w3.org/2000/svg">
<rect width="130" height="60" fill="white"/>
<mask id="mask0_43_181" style="mask-type:luminance" maskUnits="userSpaceOnUse" x="12" y="20" width="106" height="20">
<path d="M117.954 20H12V39.942H117.954V20Z" fill="white"/>
</mask>
<g mask="url(#mask0_43_181)">
<path d="M44.0557 26.5657C42.5679 26.5657 41.2313 27.1605 40.3015 28.21V22.8805C40.3015 22.6706 40.1388 22.5073 39.9296 22.5073H38.837C38.6278 22.5073 38.4651 22.6823 38.4651 22.8805V36.8282C38.4651 37.0381 38.6278 37.2014 38.837 37.2014H39.9296C40.1388 37.2014 40.3015 37.0265 40.3015 36.8282V35.7903C41.2313 36.8399 42.5679 37.4347 44.0557 37.4347C47.0544 37.4347 49.3092 35.1023 49.3092 32.0002C49.3208 28.8981 47.0544 26.5657 44.0557 26.5657ZM43.8697 28.385C45.9037 28.385 47.4379 29.936 47.4379 32.0002C47.4379 34.0643 45.9037 35.6154 43.8697 35.6154C41.8357 35.6154 40.3015 34.0643 40.3015 32.0002C40.3015 29.936 41.8357 28.385 43.8697 28.385Z" fill="#000051"/>
</g>
<mask id="mask1_43_181" style="mask-type:luminance" maskUnits="userSpaceOnUse" x="12" y="20" width="106" height="20">
<path d="M117.954 20H12V39.942H117.954V20Z" fill="white"/>
</mask>
<g mask="url(#mask1_43_181)">
<path d="M62.1756 26.7989H61.0831C60.8739 26.7989 60.7111 26.9739 60.7111 27.1721V28.21C59.7813 27.1605 58.4447 26.5657 56.957 26.5657C53.9699 26.5657 51.7151 28.8981 51.7151 32.0002C51.7151 35.1023 53.9699 37.4347 56.957 37.4347C58.4447 37.4347 59.7813 36.8399 60.7111 35.7903V36.8282C60.7111 37.0382 60.8739 37.2014 61.0831 37.2014H62.1756C62.3848 37.2014 62.5476 37.0265 62.5476 36.8282V27.1721C62.5476 26.9622 62.3848 26.7989 62.1756 26.7989ZM57.1429 35.6154C55.1206 35.6154 53.598 34.0644 53.598 32.0002C53.598 29.936 55.1206 28.385 57.1429 28.385C59.1769 28.385 60.7111 29.936 60.7111 32.0002C60.7111 34.0644 59.1769 35.6154 57.1429 35.6154Z" fill="#000051"/>
</g>
<mask id="mask2_43_181" style="mask-type:luminance" maskUnits="userSpaceOnUse" x="12" y="20" width="106" height="20">
<path d="M117.954 20H12V39.942H117.954V20Z" fill="white"/>
</mask>
<g mask="url(#mask2_43_181)">
<path d="M71.3578 26.5657C69.9864 26.5657 68.8357 27.0205 68.0105 27.8485V27.1721C68.0105 26.9622 67.8478 26.7989 67.6385 26.7989H66.546C66.3368 26.7989 66.1741 26.9739 66.1741 27.1721V36.8282C66.1741 37.0382 66.3368 37.2014 66.546 37.2014H67.6385C67.8478 37.2014 68.0105 37.0265 68.0105 36.8282V31.3355C68.0105 29.5395 69.196 28.385 71.0324 28.385C72.7758 28.385 73.9032 29.5278 73.9032 31.3005V36.8282C73.9032 37.0382 74.066 37.2014 74.2752 37.2014H75.3677C75.5769 37.2014 75.7397 37.0265 75.7397 36.8282V30.9739C75.7513 28.3383 73.9846 26.5657 71.3578 26.5657Z" fill="#000051"/>
</g>
<mask id="mask3_43_181" style="mask-type:luminance" maskUnits="userSpaceOnUse" x="12" y="20" width="106" height="20">
<path d="M117.954 20H12V39.942H117.954V20Z" fill="white"/>
</mask>
<g mask="url(#mask3_43_181)">
<path d="M84.6077 26.8339H84.3288C83.0387 26.8339 81.9112 27.3121 81.0976 28.1984V27.1838C81.0976 26.9739 80.9349 26.8106 80.7257 26.8106H79.6332C79.424 26.8106 79.2612 26.9855 79.2612 27.1838V36.8399C79.2612 37.0498 79.424 37.2131 79.6332 37.2131H80.7257C80.9349 37.2131 81.0976 37.0381 81.0976 36.8399V32.0468C81.0976 30.006 82.3297 28.7348 84.3288 28.7348H84.6077C84.8169 28.7348 84.9797 28.5599 84.9797 28.3616V27.2304C84.9913 26.9972 84.8169 26.8339 84.6077 26.8339Z" fill="#000051"/>
</g>
<mask id="mask4_43_181" style="mask-type:luminance" maskUnits="userSpaceOnUse" x="12" y="20" width="106" height="20">
<path d="M117.954 20H12V39.942H117.954V20Z" fill="white"/>
</mask>
<g mask="url(#mask4_43_181)">
<path d="M89.0011 26.7989H87.9086C87.6993 26.7989 87.5366 26.9739 87.5366 27.1721V36.8282C87.5366 37.0381 87.6993 37.2014 87.9086 37.2014H89.0011C89.2103 37.2014 89.373 37.0265 89.373 36.8282V27.1721C89.3846 26.9622 89.2103 26.7989 89.0011 26.7989Z" fill="#000051"/>
</g>
<mask id="mask5_43_181" style="mask-type:luminance" maskUnits="userSpaceOnUse" x="12" y="20" width="106" height="20">
<path d="M117.954 20H12V39.942H117.954V20Z" fill="white"/>
</mask>
<g mask="url(#mask5_43_181)">
<path d="M88.455 22.9505C87.8158 22.9505 87.2927 23.4636 87.2927 24.105C87.2927 24.7581 87.8041 25.2829 88.455 25.2829C89.1175 25.2829 89.6405 24.7698 89.6405 24.105C89.6405 23.4636 89.1291 22.9505 88.455 22.9505Z" fill="#000051"/>
</g>
<mask id="mask6_43_181" style="mask-type:luminance" maskUnits="userSpaceOnUse" x="12" y="20" width="106" height="20">
<path d="M117.954 20H12V39.942H117.954V20Z" fill="white"/>
</mask>
<g mask="url(#mask6_43_181)">
<path d="M96.9047 31.0789C95.4518 30.729 94.4871 30.4375 94.4871 29.5745C94.4871 28.7581 95.5099 28.3267 96.5095 28.3267C97.4742 28.3267 98.3808 28.6998 98.9735 29.3646C99.0433 29.4462 99.1595 29.4928 99.2641 29.4812C99.3803 29.4812 99.4733 29.4229 99.5431 29.3296L100.159 28.5132C100.275 28.3616 100.264 28.1517 100.124 28.0118C99.1944 27.0788 97.9042 26.554 96.4746 26.554C94.1849 26.554 92.5926 27.8252 92.5926 29.6445C92.5926 31.8602 94.6382 32.385 96.3003 32.8165C97.7299 33.1664 98.6597 33.4579 98.6597 34.3092C98.6597 35.1139 97.7299 35.6737 96.4049 35.6737C95.2426 35.6737 94.2314 35.2539 93.5457 34.4725C93.476 34.3909 93.3597 34.3442 93.2551 34.3442C93.1389 34.3442 93.0343 34.4025 92.9762 34.4842L92.3602 35.2772C92.2439 35.4288 92.2556 35.6387 92.3834 35.7787C93.383 36.8282 94.8591 37.4347 96.4281 37.4347C98.8922 37.4347 100.543 36.1285 100.543 34.1926C100.554 31.9885 98.4389 31.4637 96.9047 31.0789Z" fill="#000051"/>
</g>
<mask id="mask7_43_181" style="mask-type:luminance" maskUnits="userSpaceOnUse" x="12" y="20" width="106" height="20">
<path d="M117.954 20H12V39.942H117.954V20Z" fill="white"/>
</mask>
<g mask="url(#mask7_43_181)">
<path d="M112.212 26.7989H111.119C110.91 26.7989 110.748 26.9739 110.748 27.1721V32.8748C110.748 34.5425 109.667 35.6154 107.993 35.6154C106.308 35.6154 105.215 34.5425 105.215 32.8748V27.1721C105.215 26.9622 105.052 26.7989 104.843 26.7989H103.751C103.541 26.7989 103.379 26.9739 103.379 27.1721V33.0264C103.379 35.662 105.238 37.4347 107.993 37.4347C110.748 37.4347 112.596 35.662 112.596 33.0264V27.1721C112.584 26.9622 112.421 26.7989 112.212 26.7989Z" fill="#000051"/>
</g>
<mask id="mask8_43_181" style="mask-type:luminance" maskUnits="userSpaceOnUse" x="12" y="20" width="106" height="20">
<path d="M117.954 20H12V39.942H117.954V20Z" fill="white"/>
</mask>
<g mask="url(#mask8_43_181)">
<path d="M117.582 22.4957H116.489C116.28 22.4957 116.117 22.6706 116.117 22.8688V36.8166C116.117 37.0265 116.28 37.1898 116.489 37.1898H117.582C117.791 37.1898 117.954 37.0148 117.954 36.8166V22.8805C117.954 22.6706 117.791 22.4957 117.582 22.4957Z" fill="#000051"/>
</g>
<mask id="mask9_43_181" style="mask-type:luminance" maskUnits="userSpaceOnUse" x="12" y="20" width="106" height="20">
<path d="M117.954 20H12V39.942H117.954V20Z" fill="white"/>
</mask>
<g mask="url(#mask9_43_181)">
<path d="M28.9927 25.0613L26.4938 20.6881C26.2497 20.2566 25.7848 19.9883 25.2966 19.9883H20.2988C19.799 19.9883 19.3457 20.2566 19.1016 20.6881L16.6027 25.0613C16.3587 25.4928 16.3587 26.0292 16.6027 26.4607L19.1016 30.834C19.3457 31.2655 19.8106 31.5337 20.2988 31.5337H22.112L22.7977 30.3325H20.2988C20.2291 30.3325 20.1593 30.2975 20.1245 30.2276L17.6255 25.8543C17.5907 25.796 17.5907 25.7144 17.6255 25.6561L20.1245 21.2828C20.1593 21.2245 20.2291 21.1779 20.2988 21.1779H25.2966C25.3663 21.1779 25.4361 21.2128 25.4709 21.2828L27.9699 25.6561C28.0047 25.7144 28.0047 25.796 27.9699 25.8543L26.517 28.3966H27.8885L29.0043 26.4607C29.2484 26.0292 29.2484 25.4928 28.9927 25.0613Z" fill="#0788FE"/>
</g>
<mask id="mask10_43_181" style="mask-type:luminance" maskUnits="userSpaceOnUse" x="12" y="20" width="106" height="20">
<path d="M117.954 20H12V39.942H117.954V20Z" fill="white"/>
</mask>
<g mask="url(#mask10_43_181)">
<path d="M24.5875 33.4696L23.4717 31.5337H22.1003L23.5531 34.076C23.588 34.1343 23.588 34.2159 23.5531 34.2743L21.0542 38.6475C21.0193 38.7058 20.9496 38.7525 20.8799 38.7525H15.882C15.8123 38.7525 15.7426 38.7175 15.7077 38.6475L13.2088 34.2743C13.1739 34.2159 13.1739 34.1343 13.2088 34.076L15.7077 29.7028C15.7426 29.6445 15.8123 29.5978 15.882 29.5978H18.381L17.6952 28.3966H15.8937C15.3939 28.3966 14.9406 28.6648 14.6965 29.0963L12.186 33.4696C11.9419 33.9011 11.9419 34.4375 12.186 34.869L14.6849 39.2423C14.929 39.6738 15.3939 39.942 15.882 39.942H20.8799C21.3796 39.942 21.8329 39.6738 22.077 39.2423L24.5759 34.869C24.8432 34.4375 24.8432 33.9011 24.5875 33.4696Z" fill="#A06FFE"/>
</g>
<mask id="mask11_43_181" style="mask-type:luminance" maskUnits="userSpaceOnUse" x="12" y="20" width="106" height="20">
<path d="M117.954 20H12V39.942H117.954V20Z" fill="white"/>
</mask>
<g mask="url(#mask11_43_181)">
<path d="M33.3976 33.4696L30.8987 29.108C30.6546 28.6765 30.1897 28.4083 29.7015 28.4083H24.7037C24.2039 28.4083 23.7506 28.6765 23.5066 29.108L22.1118 31.5337H23.4833L24.5294 29.7028C24.5642 29.6445 24.634 29.5978 24.7037 29.5978H29.7015C29.7713 29.5978 29.841 29.6328 29.8759 29.7028L32.3748 34.076C32.4096 34.1343 32.4096 34.216 32.3748 34.2743L29.8759 38.6475C29.841 38.7058 29.7713 38.7525 29.7015 38.7525H24.7037C24.634 38.7525 24.5642 38.7175 24.5294 38.6475L23.4833 36.8282L22.7976 38.0294L23.5066 39.2539C23.7506 39.6854 24.2155 39.9537 24.7037 39.9537H29.7015C30.2013 39.9537 30.6546 39.6854 30.8987 39.2539L33.3976 34.8807C33.6533 34.4375 33.6533 33.9011 33.3976 33.4696Z" fill="#00D9CB"/>
</g>
</svg>
