<svg width="101" height="40" viewBox="0 0 101 40" fill="none" xmlns="http://www.w3.org/2000/svg">
<path fill-rule="evenodd" clip-rule="evenodd" d="M94.1011 16.9853H91.6587L91.4565 17.8771H94.1011C96.5207 17.8771 97.3372 18.5327 97.3372 20.4754V21.4158C96.7372 20.8042 95.6763 20.4942 94.1772 20.4942C91.7853 20.4942 90.6227 21.5265 90.6227 23.6496V23.8041C90.6227 25.7947 91.7678 26.8042 94.0253 26.8042H94.6332C97.0248 26.8042 98.2381 25.7947 98.2381 23.8041V20.4754C98.2381 17.9964 97.0393 16.9853 94.1011 16.9853ZM97.3372 23.9328C97.3372 25.3574 96.5721 25.9125 94.608 25.9125H94.2281C92.3327 25.9125 91.5239 25.2816 91.5239 23.8041V23.6496C91.5239 22.0446 92.2945 21.3603 94.1011 21.3603H94.2532C96.4149 21.3603 97.3372 22.0216 97.3372 23.5721V23.9328ZM31.3842 18.7349L31.8646 16.3527H27.729V13.0985L24.8259 13.5449V23.265C24.8259 26.6254 26.1205 27.6253 29.6503 27.6253H31.1957L31.6764 25.2641H29.8591C28.2511 25.2641 27.7287 24.8606 27.7287 23.0735V18.7349H31.3842ZM11.4379 11.9708V22.4145C11.4379 26.2856 13.1921 27.902 17.0144 27.902C20.9827 27.902 22.7372 26.3282 22.7372 22.4355V21.4361C22.7372 17.7778 21.1079 15.9909 17.5575 15.9909C16.4294 15.9909 15.1971 16.2248 14.3616 16.884V11.5029L11.4379 11.9708ZM17.1187 18.3303C19.1237 18.3303 19.8341 19.1388 19.8341 21.542V22.4355C19.8341 24.7749 19.1237 25.5836 17.077 25.5836C15.0303 25.5836 14.3196 24.7749 14.3196 22.4143V21.202C14.3196 19.0536 15.0303 18.3303 17.1187 18.3303ZM38.4018 15.9909C34.5795 15.9909 32.825 17.6286 32.825 21.372V21.9463C32.825 25.4982 34.3498 27.221 37.942 27.221C39.0908 27.221 40.2397 27.0087 41.0541 26.349V26.7748C41.0541 28.7743 40.198 29.433 38.1927 29.433H36.9922C36.306 29.4454 35.9942 29.5695 35.5806 30.2599L35.5783 30.2589C32.1345 35.8092 26.1556 39.1999 19.6398 39.1999C9.24342 39.1999 0.785673 30.5872 0.785673 19.9999C0.785673 9.41281 9.24342 0.800066 19.6398 0.800066C26.9423 0.800066 33.5855 5.10669 36.6936 11.8087H37.5599C34.3923 4.63217 27.3701 0 19.6398 0C8.81052 0 0 8.97199 0 19.9999C0 31.028 8.81052 40 19.6398 40C26.0086 40 31.886 36.8904 35.5501 31.73H38.3598C42.0568 31.73 43.9575 30.3052 43.9575 26.6682V21.1807C43.9575 17.5647 42.1404 15.9909 38.4018 15.9909ZM41.0752 22.3079C41.0752 24.3073 40.386 24.9239 38.4021 24.9239C36.1669 24.9239 35.7284 24.137 35.7284 21.8189V21.4574C35.7284 19.1598 36.1252 18.3303 38.4018 18.3303C40.6365 18.3303 41.0752 19.1388 41.0752 21.4784V22.3079ZM100.099 26.8042H101V13.2958H100.099V26.8042H100.099ZM79.7962 17.8773L79.9985 16.9853H75.9678V14.4351L75.0415 14.6036V23.3397C75.0415 25.8276 75.9569 26.7528 78.4185 26.7528H79.7495L79.9178 25.861H78.4185C76.5633 25.861 75.9678 25.2611 75.9678 23.3909V17.8776H79.7965L79.7962 17.8773ZM88.14 22.927C88.14 25.2261 87.4337 25.9639 85.2336 25.9639C83.0984 25.9639 82.3776 25.1978 82.3776 22.927V16.9853H81.4513V22.927C81.4513 25.7544 82.5119 26.8557 85.2334 26.8557C87.9381 26.8557 89.0412 25.7179 89.0412 22.927V16.9853H88.14V22.927ZM67.7589 22.282V21.4561C67.7589 18.8137 68.6452 17.8773 71.1467 17.8773H73.2603L73.4618 16.9853H71.147C68.1635 16.9853 66.8323 18.364 66.8323 21.4559V22.282C66.8323 25.3738 68.1633 26.7528 71.147 26.7528H73.285L73.4872 25.861H71.147C68.7086 25.861 67.7591 24.8575 67.7591 22.282H67.7589ZM61.0886 16.9853H58.6459L58.4442 17.8771H61.0886C63.4892 17.8771 64.299 18.5327 64.299 20.4754V21.4158C63.6995 20.8042 62.6386 20.4942 61.139 20.4942C58.7477 20.4942 57.585 21.5265 57.585 23.6496V23.8041C57.585 25.7947 58.738 26.8042 61.0123 26.8042H61.6205C63.9961 26.8042 65.2004 25.7947 65.2004 23.8041V20.4754C65.2004 17.9964 64.009 16.9853 61.0886 16.9853ZM64.299 23.9328C64.299 25.3761 63.5662 25.9125 61.5953 25.9125H61.2153C59.3026 25.9125 58.4862 25.2816 58.4862 23.8041V23.6496C58.4862 22.0446 59.2569 21.3603 61.0632 21.3603H61.2153C63.3767 21.3603 64.299 22.0216 64.299 23.5721V23.9328ZM52.0182 16.8305C49.1614 16.8305 47.8306 18.2677 47.8306 21.3527V29.7456H48.7318V25.4359C49.3839 26.2991 50.5997 26.8042 52.0688 26.8042C54.9126 26.8042 56.1808 25.4093 56.1808 22.282V21.3272C56.1808 18.2173 54.8969 16.8305 52.0182 16.8305ZM55.254 22.2818C55.254 24.9285 54.391 25.9122 52.0688 25.9122C49.8713 25.9122 48.757 24.821 48.757 22.6686V21.3527C48.757 18.7737 49.7019 17.722 52.0182 17.722C54.3467 17.722 55.254 18.7326 55.254 21.3272V22.2818Z" fill="#001E61"/>
</svg>
