<svg width="130" height="60" viewBox="0 0 130 60" fill="none" xmlns="http://www.w3.org/2000/svg">
<rect width="130" height="60" fill="white"/>
<path fill-rule="evenodd" clip-rule="evenodd" d="M46.6277 26.4475L44.1196 32.8424H47.5906L46.6391 26.4215L46.6277 26.4475ZM33.3403 41.1278L43.629 19.4552H51.408L55.7457 41.1278H48.9168L48.4134 38.2392H41.7881L40.264 41.1278H33.3403ZM58.9792 41.1278L61.9596 19.4552H68.8408L65.8618 41.1278H58.9792ZM104.747 26.4215L102.229 32.8424H105.699L104.747 26.4215ZM91.4484 41.1278L101.738 19.4552H109.516L113.855 41.1278H107.025L106.523 38.2392H99.8962L98.372 41.1278H91.4484Z" fill="#0070AF"/>
<path fill-rule="evenodd" clip-rule="evenodd" d="M76.2354 30.9938H84.8585L90.767 41.0049H82.1424L76.2354 30.9938Z" fill="#0070AF"/>
<path fill-rule="evenodd" clip-rule="evenodd" d="M77.1318 29.4562H86.0448L93.7857 19.487H84.8727L77.1318 29.4562Z" fill="#F6822A"/>
<path fill-rule="evenodd" clip-rule="evenodd" d="M68.2202 41.0657H77.1317L84.8726 30.975H75.9597L68.2202 41.0657Z" fill="#F6822A"/>
<path fill-rule="evenodd" clip-rule="evenodd" d="M71.4336 19.3655H79.7513L85.4506 29.4562H77.1314L71.4336 19.3655Z" fill="#0070AF"/>
<path fill-rule="evenodd" clip-rule="evenodd" d="M33.5438 20.2305L32.8821 26.6052C30.3458 23.0251 24.4673 25.4957 24.0057 29.9552C23.4191 35.6153 29.0768 36.9345 32.1554 33.6018L31.4923 39.9909C30.5735 40.4523 29.6748 40.8111 28.7879 41.0526C27.9058 41.2956 27.0217 41.4244 26.1446 41.4432C25.0418 41.4678 24.0426 41.3492 23.1424 41.0902C22.2422 40.8356 21.4275 40.4306 20.7067 39.8839C19.3166 38.8438 18.3115 37.5218 17.6924 35.9133C17.0733 34.299 16.8695 32.4779 17.0805 30.4427C17.2506 28.8067 17.6532 27.3154 18.295 25.9629C18.9312 24.6119 19.8126 23.3824 20.9349 22.2686C21.9959 21.2069 23.1513 20.4055 24.4016 19.8617C25.647 19.3221 27.0062 19.0343 28.4753 19.0024C29.3529 18.9836 30.2139 19.0733 31.0495 19.2802C31.8896 19.4856 32.7181 19.8067 33.5438 20.2305Z" fill="#0070AF"/>
</svg>
