<svg xmlns="http://www.w3.org/2000/svg" viewBox="0 0 100 100" fill="none"><circle cx="50" cy="50" r="50" fill="#111111"/><g transform="matrix(0.65 0 0 0.65 17.5 17.5)"><path fill="#00A4E0" d="M35.6 28.4c-9.6 0-17.4 7.8-17.4 17.4 0 4.1 1.4 7.9 3.8 10.9l-7.2 7.2C8.6 56.6 5 47.9 5 38.3 5 21 19 7 36.3 7c7.9 0 15.2 2.9 20.9 7.7L50 21.9c-4-2.2-8.6-3.5-13.4-3.5h-1z"/><path fill="#FFCD00" d="M64.4 28.4c-4.8 0-9.4 1.3-13.4 3.5l-7.2-7.2C49.5 19.9 56.8 17 64.7 17c17.3 0 31.3 14 31.3 31.3 0 9.6-3.6 18.3-9.8 24.8l-7.2-7.2c2.4-3 3.8-6.8 3.8-10.9 0-9.6-7.8-17.4-17.4-17.4h-1z"/><path fill="#EB001B" d="M64.4 71.6c9.6 0 17.4-7.8 17.4-17.4 0-4.1-1.4-7.9-3.8-10.9l7.2-7.2C91.4 43.4 95 52.1 95 61.7c0 17.3-14 31.3-31.3 31.3-7.9 0-15.2-2.9-20.9-7.7L50 78.1c4 2.2 8.6 3.5 13.4 3.5h1z"/><path fill="#FFFFFF" d="M50 50m-13.5 2.1c0-4.6 2.3-7 6.4-7 4.5 0 6.6 2.6 6.6 8.3v.4H35.8c.2 4.1 2.3 5.4 5.3 5.4 2.2 0 3.8-.7 4.8-1.7l3.1 3c-2.1 2.6-5.1 3.7-8.2 3.7-7 0-10.4-4-10.4-10.1 0-7.2 4-11.7 10.6-11.7 6.7 0 10.4 4.5 10.4 11.2 0 .8-.1 1.7-.2 2.1H36.5v-.5zm10.7-5.1c0-2-1-4.2-3.4-4.2-2.4 0-3.5 1.9-3.7 4.2h7.1zM64 39.7h4.2v23.6H64V39.7zM77.1 63.8c-6.8 0-10.7-4.6-10.7-11.7 0-7.2 3.9-11.8 10.7-11.8 6.9 0 10.7 4.7 10.7 11.8 0 7-3.9 11.7-10.7 11.7zm0-4.1c4.3 0 6.4-3 6.4-7.6 0-4.6-2.1-7.6-6.4-7.6-4.3 0-6.4 3-6.4 7.6 0 4.6 2.1 7.6 6.4 7.6z"/></g></svg>
