<svg width="130" height="60" viewBox="0 0 130 60" fill="none" xmlns="http://www.w3.org/2000/svg">
<rect width="130" height="60" fill="white"/>
<path d="M63.8749 40.1636H60.7268V35.8032H63.8749C65.3629 35.8259 66.3777 36.6654 66.3777 37.9787C66.3777 39.2923 65.3629 40.1636 63.8749 40.1636ZM64.3032 32.5833H57.0063V48H60.7268V43.5871H64.2806C68.2042 43.5871 70.1198 40.8016 70.1198 37.9787C70.1198 35.156 68.2265 32.5833 64.3032 32.5833Z" fill="#414141"/>
<path d="M99.4959 41.9919L92.4251 32.5833H88.6323V48H92.4251V38.5686L99.4959 48H103.289V32.5833H99.4959V41.9919Z" fill="#414141"/>
<path d="M58.7452 27.9016V26.4053H60.251C60.9403 26.4053 61.3007 26.5866 61.3007 27.1535C61.3007 27.6523 60.9508 27.9016 60.251 27.9016H58.7452ZM58.7452 23.3787H60.1344C60.8024 23.3787 61.1205 23.628 61.1205 24.1495C61.1205 24.7502 60.8873 24.9884 60.1344 24.9884H58.7452V23.3787ZM63.1774 27.2555C63.1774 26.4281 62.7958 25.7591 62.096 25.385C62.255 25.2604 62.7746 24.7051 62.7746 23.9115C62.7746 22.6759 62.1172 21.7917 60.0284 21.7917H57.0063V29.5H60.4526C62.4248 29.5 63.1774 28.5137 63.1774 27.2555Z" fill="#414141"/>
<path d="M78.1789 24.7843L82.1161 29.5H84.0043V21.7917H82.1161V26.496L78.1789 21.7917H76.2905V29.5H78.1789V24.7843Z" fill="#414141"/>
<path d="M94.0323 27.972L92.4985 26.9196C92.1315 27.3644 91.5749 27.6476 90.9527 27.6476C89.8449 27.6476 88.9466 26.7512 88.9466 25.6452C88.9466 24.5403 89.8449 23.6441 90.9527 23.6441C91.5727 23.6441 92.1291 23.926 92.4952 24.3687L94.029 23.3151C93.3234 22.3884 92.2081 21.7917 90.9527 21.7917C88.8184 21.7917 87.0898 23.5173 87.0898 25.6452C87.0898 27.7742 88.8184 29.5 90.9527 29.5C92.2103 29.5 93.3268 28.901 94.0323 27.972Z" fill="#414141"/>
<path d="M100.204 23.6432C101.31 23.6432 102.207 24.5406 102.207 25.6457C102.207 26.7509 101.31 27.6471 100.204 27.6471C99.0976 27.6471 98.2007 26.7509 98.2007 25.6457C98.2007 24.5406 99.0976 23.6432 100.204 23.6432ZM100.204 29.5C102.334 29.5 104.06 27.7745 104.06 25.6457C104.06 23.517 102.334 21.7917 100.204 21.7917C98.0733 21.7917 96.3467 23.517 96.3467 25.6457C96.3467 27.7745 98.0733 29.5 100.204 29.5Z" fill="#414141"/>
<path d="M69.7634 23.9L70.8065 26.4587C70.459 26.5118 70.1057 26.5404 69.7524 26.5404C69.3994 26.5404 69.0496 26.5125 68.7047 26.4599L69.7634 23.9ZM68.0412 28.0639C68.6018 28.1795 69.1739 28.2387 69.7524 28.2387C70.267 28.2387 70.783 28.1918 71.2862 28.0994C71.3443 28.0887 71.4024 28.0749 71.4604 28.063L72.0464 29.5H73.9764L70.756 21.7917H68.7377L65.4912 29.5H67.4472L68.0412 28.0639Z" fill="#414141"/>
<path d="M77.8333 42.1457C77.1159 42.1457 76.4047 42.0892 75.7031 41.9829L77.8558 36.8003L79.977 41.9802C79.2705 42.0878 78.5518 42.1457 77.8333 42.1457ZM75.7951 32.5833L69.3481 48H73.2031L74.3961 45.1279C75.5224 45.359 76.6718 45.4774 77.8335 45.4774C78.8675 45.4774 79.9042 45.3835 80.9144 45.1987C81.0312 45.1773 81.1478 45.1498 81.2646 45.1259L82.4416 48H86.3185L79.8495 32.5833H75.7951Z" fill="#414141"/>
<path d="M36.5643 35.7024C34.0341 35.7024 31.9774 33.6872 31.9774 31.2084C31.9774 28.7293 34.0341 26.7143 36.5643 26.7143C39.0947 26.7143 41.1514 28.7293 41.1514 31.2084C41.1514 33.6872 39.0947 35.7024 36.5643 35.7024ZM36.5643 20.25C30.3966 20.25 25.3794 25.1656 25.3794 31.2084V48H31.9774V41.219L32.4967 41.4185C33.7949 41.9148 35.162 42.1666 36.5643 42.1666C42.7322 42.1666 47.7494 37.2511 47.7494 31.2084C47.7494 25.1656 42.7322 20.25 36.5643 20.25Z" fill="#414141"/>
<path d="M25.3794 17.1667H31.5504V11H25.3794V17.1667Z" fill="#00C5FF"/>
</svg>
