<svg width="130" height="60" viewBox="0 0 130 60" fill="none" xmlns="http://www.w3.org/2000/svg">
<rect width="130" height="60" fill="white"/>
<mask id="mask0_42_218" style="mask-type:luminance" maskUnits="userSpaceOnUse" x="10" y="12" width="109" height="36">
<path d="M10.7865 12.2784H119V47.3077H10.7865V12.2784Z" fill="white"/>
</mask>
<g mask="url(#mask0_42_218)">
<path d="M33.1915 40.5646H38.2288V25.7647H33.1915V40.5646ZM39.9659 15.6938H36.5787V19.1091H39.9659V15.6938ZM20.9444 17.3577H16.0809V21.6488H20.5972C23.4633 21.6488 25.1135 23.0499 25.1135 25.6771C25.1135 28.3043 23.4633 29.7931 20.5972 29.7931H16.0809V21.7363H11.043V40.5646H16.0809V34.0841H20.8574C26.6773 34.0841 30.0645 30.9315 30.0645 25.502C30.0645 20.4227 26.7636 17.3577 20.9444 17.3577ZM43.3531 12.2784H33.1915V22.5245H43.3531V12.2784ZM41.7029 20.773H34.9285V13.9423H41.7029V20.773ZM71.2338 17.3577H66.63V21.6488H70.973C73.8391 21.6488 75.4899 23.0499 75.4899 25.6771C75.4899 28.3043 73.8391 29.7931 70.9736 29.7931H66.6306V21.7363H61.5927V40.5646H66.6306V34.0841H71.2338C77.0531 34.0841 80.4403 30.9315 80.4403 25.502C80.4403 20.4227 77.0531 17.3577 71.2338 17.3577ZM113.532 22.7872L109.189 33.8214L104.847 22.7872H99.6357L106.584 40.5646L103.891 47.3077H109.189L118.744 22.7872H113.532ZM90.9497 22.6996C87.9103 22.6996 85.5652 23.4002 82.9593 24.7138L84.5224 28.2167C86.3465 27.1659 88.1705 26.6404 89.8206 26.6404C92.2526 26.6404 93.4687 27.6913 93.4687 29.6179V29.9682H88.6046C84.2622 29.9682 81.9171 31.9824 81.9171 35.3102C81.9171 38.5504 84.1753 40.8273 87.9966 40.8273C90.4286 40.8273 92.1657 39.9515 93.5556 38.4628V40.3894H98.5066V28.8298C98.3327 25.0641 95.6398 22.6996 90.9497 22.6996ZM93.9028 34.6096C93.3817 36.0983 91.9055 37.3244 89.8206 37.3244C88.0835 37.3244 87.0414 36.4486 87.0414 35.0475C87.0414 33.6463 87.9966 33.0333 89.9076 33.0333H93.9028V34.6096ZM51.0833 36.7113C48.6512 36.7113 46.9142 34.7847 46.9142 31.8948C46.9142 29.0925 48.6512 27.1659 51.0833 27.1659C52.8203 27.1659 54.1233 27.8665 55.0785 29.0925L58.4663 26.6404C56.9025 24.276 54.2103 22.8748 50.8224 22.8748C45.5243 22.7872 41.8768 26.4653 41.8768 31.8948C41.8768 37.3244 45.5249 40.9149 50.8231 40.9149C54.4705 40.9149 57.1633 39.4261 58.6396 36.9741L55.1654 34.6096C54.2972 36.0108 52.9073 36.7113 51.0833 36.7113Z" fill="#11C76F"/>
</g>
</svg>
