<svg width="130" height="60" viewBox="0 0 130 60" fill="none" xmlns="http://www.w3.org/2000/svg">
<rect width="130" height="60" fill="white"/>
<path fill-rule="evenodd" clip-rule="evenodd" d="M61.5602 25.4488C61.6216 23.5644 60.0761 21.8454 56.8192 21.7821C54.5164 21.749 52.8062 22.5492 52.6533 24.4611C52.527 26.0561 53.0642 26.373 54.1025 26.7853C54.6427 27.3629 59.0037 28.0644 59.8818 28.2198C61.148 28.4457 63.8705 29.0178 65.3194 30.5151C67.9745 33.3215 66.7439 38.8377 63.8705 40.7191C61.9053 41.9936 59.2236 42.313 56.6641 42.344C55.4953 42.378 52.7127 41.9613 51.0068 40.7191C48.9546 39.2183 47.942 36.9229 47.7891 34.726H52.3963C52.3963 35.3298 52.5885 36.2868 53.3753 37.1178C54.4157 38.2037 56.129 38.552 57.7066 38.4876C59.2875 38.456 60.7695 37.9801 61.3703 37.4004C62.3808 36.448 62.6029 34.6275 61.4646 33.4833C59.9456 31.8884 55.3997 31.8884 52.4315 30.8678C49.9314 30.0053 47.8825 28.1856 48.2605 24.4299C48.6394 20.7291 51.29 17.9882 56.9178 17.9882C58.1462 17.9882 62.4436 18.0845 64.6887 20.9553C65.8896 22.5149 66.2048 24.6829 66.0171 25.4488H61.5602Z" fill="#1E2044"/>
<path fill-rule="evenodd" clip-rule="evenodd" d="M78.5309 33.4834C77.2667 34.247 75.5653 34.186 74.4238 34.4054C73.0681 34.6629 72.1139 35.8091 72.498 37.2144C72.7516 38.2309 73.5362 38.9655 75.4344 38.6475C78.0554 38.2309 78.5309 36.3831 78.5309 34.4688V33.4834ZM79.0367 41.613C78.7215 41.1989 78.5309 40.4974 78.5627 39.891C77.0154 41.3563 75.6563 42.3441 73.0681 42.3441C69.5891 42.3441 67.883 40.3703 68.0098 37.0216C68.1051 34.5972 69.052 32.2386 72.9716 31.567C74.6116 31.5017 76.3793 31.1238 77.426 30.7724C78.2129 30.4831 78.5947 29.6564 78.5309 28.825C78.5309 27.7431 77.6434 27.2632 75.6221 27.2632C73.0945 27.2632 72.7775 28.825 72.7177 30.0717H68.5464C68.6127 24.5564 73.2867 24.0453 75.6221 24.0453C77.3306 24.0453 78.8146 24.3292 79.6703 24.6829C81.3764 25.3834 82.732 26.7854 82.732 29.53V38.9656C82.7022 39.7305 83.1462 40.4974 83.7106 41.0038V41.613H79.0367Z" fill="#1E2044"/>
<path fill-rule="evenodd" clip-rule="evenodd" d="M84.4657 24.6829H86.8713V22.6732C86.8713 20.094 88.1673 18.3705 91.0401 18.3705H93.7918V21.6858H92.2449C91.6442 21.6858 91.2938 22.0713 91.2938 22.8639V24.6829H93.9193V27.6467H91.2938V41.6129H86.8713V27.6467H84.4657V24.6829Z" fill="#1E2044"/>
<path fill-rule="evenodd" clip-rule="evenodd" d="M95.8375 24.3293H100.264V27.6811H100.325C100.608 26.6602 100.83 26.0561 102.378 24.9679C103.137 24.3927 104.149 23.8196 105.538 24.0454V28.6044C103.645 28.3828 100.799 28.1277 100.264 31.8885V41.613H95.8375V24.3293Z" fill="#1E2044"/>
<path fill-rule="evenodd" clip-rule="evenodd" d="M116.815 33.4834C115.551 34.247 113.845 34.186 112.713 34.4054C111.354 34.6629 110.408 35.8091 110.783 37.2144C111.037 38.2309 111.83 38.9655 113.719 38.6475C116.343 38.2309 116.815 36.3831 116.815 34.4688V33.4834ZM117.326 41.613C117.007 41.1989 116.815 40.4974 116.848 39.891C115.299 41.3563 113.943 42.3441 111.354 42.3441C107.876 42.3441 106.166 40.3703 106.298 37.0216C106.392 34.5972 107.336 32.2386 111.258 31.567C112.901 31.5017 114.671 31.1238 115.711 30.7724C116.507 30.4831 116.884 29.6564 116.815 28.825C116.815 27.7431 115.933 27.2632 113.911 27.2632C111.381 27.2632 111.069 28.825 111.003 30.0717H106.836C106.896 24.5564 111.569 24.0453 113.911 24.0453C115.618 24.0453 117.102 24.3292 117.957 24.6829C119.658 25.3834 121.019 26.7854 121.019 29.53V38.9656C120.987 39.7305 121.43 40.4974 122 41.0038V41.613H117.326Z" fill="#1E2044"/>
<path fill-rule="evenodd" clip-rule="evenodd" d="M24.7153 32.056C24.6438 30.4706 24.0504 29.5099 23.4638 28.9311H23.471C24.249 28.9311 25.3316 29.6139 25.3316 30.7062C25.3316 31.3092 25.1273 31.7486 24.7153 32.056ZM22.0838 35.0924V33.5706C22.6459 33.5581 23.1551 33.5061 23.6102 33.4165C23.3906 34.452 22.818 34.9431 22.0838 35.0924ZM19.9601 33.3189C20.247 33.4193 20.6035 33.5005 21.0689 33.5424V35.0613C20.5083 34.8618 20.0243 34.295 19.9601 33.3189ZM19.9525 28.9311H21.0689V32.6041C20.6524 32.5488 20.2821 32.4476 19.9525 32.3131V28.9311ZM18.1933 26.4734C18.1933 25.9228 18.4444 25.4461 18.9375 25.102V27.7942C18.465 27.5214 18.1933 27.0204 18.1933 26.4734ZM21.0689 22.2293V23.6089C20.6947 23.6195 20.3341 23.6595 19.9933 23.7275C20.1159 23.0411 20.5107 22.4714 21.0689 22.2293ZM23.244 23.9442C22.9323 23.8346 22.5538 23.7233 22.0838 23.6596V22.1688C22.6276 22.3476 23.0872 22.9078 23.244 23.9442ZM22.0838 27.9644V24.5845C22.5078 24.6437 22.916 24.7475 23.2999 24.8881C23.2604 26.3492 22.5209 27.704 22.0838 27.9644ZM19.9525 24.6692C20.2799 24.5901 20.6522 24.5423 21.0689 24.5307V28.0095H19.9525V24.6692ZM23.7069 32.4826C23.2598 32.5853 22.7192 32.6379 22.0838 32.6492V28.9403C22.5479 29.0474 23.7078 30.1735 23.7078 32.3788C23.7078 32.4137 23.7074 32.4483 23.7069 32.4826ZM23.3018 28.0095H23.2508C23.7591 27.3772 24.1636 26.3759 24.2815 25.358C24.6384 25.574 24.9584 25.8237 25.2302 26.0979C25.3654 26.2345 25.4331 26.3027 25.5346 26.3027C25.7376 26.3027 25.8391 26.1321 25.7376 25.9613C25.467 25.5176 25.3654 25.1421 25.3654 24.6643C25.3654 24.357 25.467 24.0839 25.5346 23.9132C25.6022 23.7426 25.5346 23.5719 25.3316 23.5719C25.1624 23.5719 25.1287 23.7084 25.061 23.8108C24.9311 24.0402 24.6761 24.2376 24.2967 24.2531C24.1506 22.4084 23.2158 21.5051 22.2516 21.2559C22.5978 20.4244 23.4553 19.9141 24.5873 19.6805C24.7565 19.6463 24.8918 19.5781 24.8918 19.4415C24.8918 19.2709 24.7565 19.2026 24.5873 19.2026C24.2152 19.2026 23.6738 19.4074 23.234 19.5439C22.5575 19.7487 21.9824 19.8853 21.4748 19.8853C20.3923 19.8853 19.4449 19.4074 19.1405 19.4074C19.0052 19.4074 18.9037 19.5098 18.9037 19.6463C18.9037 19.7487 18.9714 19.8511 19.1743 19.9194C20.0737 20.2138 20.6586 20.6842 20.9168 21.3183C20.3825 21.5163 19.9394 21.9189 19.6364 22.445C19.2764 21.7125 18.8204 21.3873 18.1594 21.3873C17.5166 21.3873 17.0091 21.8651 17.0091 22.4454C17.0091 22.855 17.2798 23.1623 17.5843 23.1623C17.7196 23.1623 17.7872 23.094 17.7872 22.9916C17.7872 22.855 17.7196 22.8209 17.7196 22.6161C17.7196 22.4113 17.8887 22.2406 18.1594 22.2406C18.5653 22.2406 18.9375 22.6503 18.9375 23.7767V24.0572C17.8733 24.5328 17.1783 25.3708 17.1783 26.5075C17.1783 27.6752 17.9415 28.5484 18.9375 28.8323V31.7121C18.1786 31.0958 17.7535 30.2991 17.4828 29.7163C17.4151 29.5797 17.3474 29.409 17.1783 29.409C16.9753 29.409 16.9076 29.6139 17.0091 29.8528C17.1106 30.0917 17.1783 30.4672 17.1783 30.8086C17.1783 31.2182 17.043 31.5937 16.7723 31.8668C16.637 32.0033 16.5355 32.1056 16.5355 32.2081C16.5355 32.3446 16.637 32.4129 16.7385 32.4129C16.9415 32.4129 17.1783 32.174 17.6181 32.174C17.8887 32.174 18.227 32.3105 18.7684 32.6519C18.8252 32.6856 18.8811 32.7217 18.9375 32.7594V33.1639V33.6418C18.9375 34.1197 18.7345 34.4269 18.3286 34.4269C18.0579 34.4269 17.8887 34.2221 17.8887 33.949C17.8887 33.7442 18.0241 33.676 18.0241 33.5736C18.0241 33.4711 17.9564 33.4028 17.8211 33.4028C17.6181 33.4028 17.2798 33.71 17.2798 34.2221C17.2798 34.7 17.6181 35.2803 18.3286 35.2803C18.7309 35.2803 19.1088 35.157 19.4624 34.806C19.7902 35.3403 20.3653 35.8172 21.0157 35.9932C20.8375 36.8948 20.2209 37.6357 19.3435 37.6357C18.9037 37.6357 18.6669 37.3967 18.6669 37.0894C18.6669 36.8505 18.836 36.714 18.9714 36.6457C19.1405 36.5774 19.2758 36.5433 19.2758 36.3385C19.2758 36.2361 19.2081 36.0995 18.8698 36.0995C18.2609 36.0995 17.7535 36.6457 17.7535 37.2943C17.7535 38.0111 18.2609 38.6938 19.3097 38.6938C20.2035 38.6938 20.9818 38.2515 21.4736 37.6939C22.0523 38.1657 22.9338 38.5572 23.3695 38.5572C23.5047 38.5572 23.6401 38.489 23.6401 38.3524C23.6401 38.2159 23.5047 38.1135 23.3695 38.0452C22.5913 37.6357 22.0838 37.0553 22.0838 36.0313V36.0144C23.2919 35.7872 24.4217 34.799 24.6714 33.0987C25.7708 32.6274 26.3466 31.8151 26.3466 30.7062C26.3466 29.1018 24.858 28.0095 23.3018 28.0095ZM29.053 37.6357C27.869 37.6357 27.0908 36.9529 27.0908 35.9289C27.0908 35.0754 27.666 34.3927 28.3426 34.3927C28.6132 34.3927 28.85 34.4951 28.85 34.7683C28.85 34.939 28.7824 35.0754 28.9515 35.0754C29.053 35.0754 29.1546 34.973 29.1546 34.7C29.1546 34.3587 28.85 34.0855 28.4102 34.0855H28.3088C28.3764 33.949 28.3764 33.8124 28.3764 33.7784C28.3764 33.4711 28.1397 33.3004 27.9028 33.3004C27.666 33.3004 27.4292 33.437 27.4292 33.6076C27.4292 33.676 27.463 33.71 27.5306 33.71C27.6321 33.71 27.666 33.6076 27.8352 33.6076C27.9704 33.6076 28.0719 33.676 28.0719 33.8466C28.0719 34.0855 27.869 34.1879 27.6998 34.2903C27.1586 34.5976 26.7864 35.212 26.7864 35.9289C26.7864 36.8846 27.3277 37.4991 28.1058 37.7721L27.5983 38.5572C26.9217 38.5572 26.5834 39.0693 25.9744 40.1616C25.9068 39.8885 25.7037 39.6837 25.3654 39.6837C24.9933 39.6837 24.7565 39.9568 24.7565 40.3322C24.7565 40.4347 24.8241 40.503 24.8918 40.503C24.9933 40.503 25.061 40.4347 25.061 40.3322C25.061 40.1616 25.1624 39.9909 25.3654 39.9909C25.6022 39.9909 25.7037 40.1616 25.7037 40.3664C25.7037 40.6054 25.67 40.7419 25.5008 41.015C24.7904 42.1756 23.8092 42.7559 22.9634 42.7559C22.2192 42.7559 21.7794 42.3121 21.7794 41.8684C21.7794 41.4588 22.0162 41.1174 22.4222 41.1174C22.6928 41.1174 22.862 41.2881 22.862 41.527C22.862 41.7318 22.6928 41.7318 22.6928 41.8342C22.6928 41.9025 22.7605 41.9366 22.8281 41.9366C23.0312 41.9366 23.1664 41.6977 23.1664 41.4588C23.1664 41.0833 22.862 40.8102 22.4222 40.8102C22.0162 40.8102 21.6779 41.0833 21.5763 41.3563C21.4748 41.0833 21.1365 40.8102 20.7306 40.8102C20.2908 40.8102 19.9863 41.0833 19.9863 41.4588C19.9863 41.6977 20.1216 41.9366 20.3246 41.9366C20.3923 41.9366 20.4599 41.9025 20.4599 41.8342C20.4599 41.7318 20.2908 41.7318 20.2908 41.527C20.2908 41.2881 20.4599 41.1174 20.7306 41.1174C21.1365 41.1174 21.3734 41.4588 21.3734 41.8684C21.3734 42.3121 20.9335 42.7559 20.1893 42.7559C19.3435 42.7559 18.3624 42.1756 17.652 41.015C17.4828 40.7419 17.4489 40.6054 17.4489 40.3664C17.4489 40.1616 17.5504 39.9909 17.7872 39.9909C17.9903 39.9909 18.0918 40.1616 18.0918 40.3322C18.0918 40.4347 18.1594 40.503 18.2609 40.503C18.3286 40.503 18.3962 40.4347 18.3962 40.3322C18.3962 39.9568 18.1594 39.6837 17.7872 39.6837C17.4489 39.6837 17.2459 39.8885 17.1783 40.1616C16.5693 39.0693 16.231 38.5572 15.5544 38.5572L15.0469 37.7721C15.8251 37.4991 16.3663 36.8846 16.3663 35.9289C16.3663 35.212 15.9942 34.5976 15.4529 34.2903C15.2838 34.1879 15.0807 34.0855 15.0807 33.8466C15.0807 33.676 15.1822 33.6076 15.3176 33.6076C15.4867 33.6076 15.5205 33.71 15.6221 33.71C15.6897 33.71 15.7236 33.676 15.7236 33.6076C15.7236 33.437 15.4867 33.3004 15.2499 33.3004C15.0131 33.3004 14.7763 33.4711 14.7763 33.7784C14.7763 33.8124 14.7763 33.949 14.8439 34.0855H14.7425C14.3027 34.0855 13.9981 34.3587 13.9981 34.7C13.9981 34.973 14.0996 35.0754 14.2011 35.0754C14.3703 35.0754 14.3027 34.939 14.3027 34.7683C14.3027 34.4951 14.5394 34.3927 14.8101 34.3927C15.4867 34.3927 16.0619 35.0754 16.0619 35.9289C16.0619 36.9529 15.2838 37.6357 14.0996 37.6357C12.7126 37.6357 11.6638 36.6116 11.6638 35.1778C11.6638 33.7784 12.4758 32.8225 13.3892 31.9692L14.1673 31.2182C15.1484 30.2966 15.5544 29.3407 15.5544 28.146C15.5544 26.8489 14.7763 25.4152 13.1524 24.6983C13.4907 24.5959 13.6937 24.2546 13.6937 23.845C13.6937 23.5719 13.5922 23.4012 13.5922 23.1963C13.5922 22.7868 13.829 22.5478 14.1673 22.5478C14.4718 22.5478 14.6748 22.7868 14.6748 23.0257C14.6748 23.2305 14.5394 23.4012 14.3027 23.4012C14.2011 23.4012 14.1335 23.4012 14.1335 23.5036C14.1335 23.606 14.235 23.6402 14.3703 23.6402C14.7763 23.6402 14.9793 23.2988 14.9793 23.1281C15.0469 23.1623 15.1146 23.1963 15.2161 23.1963C15.4529 23.1963 15.6221 23.0257 15.6221 22.7868C15.6221 22.7185 15.5882 22.6161 15.4867 22.6161C15.419 22.6161 15.3853 22.6844 15.3853 22.7527C15.3853 22.855 15.3176 22.9233 15.2161 22.9233C15.0807 22.9233 14.9793 22.8209 14.9116 22.6844C14.7763 22.4454 14.5056 22.2406 14.1673 22.2406C13.7275 22.2406 13.3892 22.5478 13.3215 22.9575C13.1185 22.7527 12.8817 22.5478 12.5434 22.343C12.8141 22.1724 13.0509 22.0358 13.3215 21.831C13.7275 21.5237 14.0996 21.1824 14.5056 20.7386L16.3663 18.6906C17.9903 16.8814 19.039 16.4376 20.0539 16.4376C20.9335 16.4376 21.3734 16.8814 21.3734 17.3934C21.3734 17.7687 21.2136 18.0473 20.96 18.1849C20.816 18.0377 20.7102 17.8365 20.663 17.5982C20.6291 17.4276 20.5952 17.4276 20.5614 17.4276C20.4937 17.4276 20.4937 17.4958 20.4937 17.5641C20.4937 17.8561 20.5628 18.0914 20.6758 18.2738C20.6386 18.2784 20.6005 18.2809 20.5614 18.2809C20.2231 18.2809 20.0201 18.1103 20.0201 17.9055C20.0201 17.8713 20.0201 17.803 20.0878 17.7348C20.1554 17.6665 20.1216 17.6324 20.0878 17.6324C19.9525 17.6324 19.8171 17.803 19.8171 18.0079C19.8171 18.2468 20.0201 18.5882 20.5952 18.5882C20.6804 18.5882 20.7935 18.5772 20.9151 18.5404C21.1059 18.6878 21.3411 18.7588 21.5763 18.7588C21.8116 18.7588 22.0469 18.6878 22.2376 18.5404C22.3591 18.5772 22.4722 18.5882 22.5575 18.5882C23.1326 18.5882 23.3355 18.2468 23.3355 18.0079C23.3355 17.803 23.2003 17.6324 23.0649 17.6324C23.0312 17.6324 22.9972 17.6665 23.0649 17.7348C23.1326 17.803 23.1326 17.8713 23.1326 17.9055C23.1326 18.1103 22.9296 18.2809 22.5913 18.2809C22.5521 18.2809 22.5141 18.2784 22.4769 18.2738C22.59 18.0914 22.6589 17.8561 22.6589 17.5641C22.6589 17.4958 22.6589 17.4276 22.5913 17.4276C22.5575 17.4276 22.5236 17.4276 22.4898 17.5982C22.4426 17.8365 22.3367 18.0377 22.1927 18.1849C21.939 18.0473 21.7794 17.7687 21.7794 17.3934C21.7794 16.8814 22.2192 16.4376 23.0988 16.4376C24.1137 16.4376 25.1624 16.8814 26.7864 18.6906L28.6471 20.7386C29.0193 21.1824 29.4252 21.5237 29.8312 21.831C30.1018 22.0358 30.3387 22.1724 30.6093 22.343C30.271 22.5478 30.0342 22.7527 29.8312 22.9575C29.7635 22.5478 29.4252 22.2406 28.9854 22.2406C28.6471 22.2406 28.3764 22.4454 28.2411 22.6844C28.1734 22.8209 28.0719 22.9233 27.9366 22.9233C27.8352 22.9233 27.7675 22.855 27.7675 22.7527C27.7675 22.6844 27.7336 22.6161 27.666 22.6161C27.5645 22.6161 27.5306 22.7185 27.5306 22.7868C27.5306 23.0257 27.6998 23.1963 27.9366 23.1963C28.0381 23.1963 28.1058 23.1623 28.1734 23.1281C28.1734 23.2988 28.3764 23.6402 28.7824 23.6402C28.9178 23.6402 29.0193 23.606 29.0193 23.5036C29.0193 23.4012 28.9515 23.4012 28.85 23.4012C28.6132 23.4012 28.478 23.2647 28.478 23.0257C28.478 22.7868 28.6809 22.5478 28.9854 22.5478C29.3237 22.5478 29.5605 22.7868 29.5605 23.1963C29.5605 23.4012 29.4591 23.5719 29.4591 23.845C29.4591 24.2546 29.662 24.5959 30.0003 24.6983C28.3764 25.4152 27.5983 26.8489 27.5983 28.146C27.5983 29.3407 28.0043 30.2966 28.9854 31.2182L29.7635 31.9692C30.677 32.8225 31.4889 33.7784 31.4889 35.1778C31.4889 36.6116 30.4401 37.6357 29.053 37.6357ZM21.5763 43.9848C21.3057 43.4386 21.0013 43.0972 20.8659 42.9266C21.2042 42.7901 21.4411 42.5511 21.5763 42.278C21.7117 42.5511 21.9485 42.7901 22.2868 42.9266C22.1515 43.0972 21.847 43.4386 21.5763 43.9848ZM21.9185 18.378C21.8123 18.4258 21.6968 18.4515 21.5763 18.4515C21.4558 18.4515 21.3404 18.4258 21.2343 18.378C21.3664 18.2771 21.4886 18.1295 21.5763 17.9167C21.6641 18.1295 21.7863 18.2771 21.9185 18.378ZM32.0302 33.71C31.8273 33.71 31.6581 33.8124 31.5904 33.949C31.3197 33.3346 31.0491 32.7543 29.865 31.6619C29.9327 31.6961 30.1695 31.7302 30.3387 31.7302C30.7108 31.7302 31.1168 31.6278 31.3536 31.3889C31.4212 31.6278 31.6242 31.7643 31.8611 31.7643C32.2332 31.7643 32.3685 31.5254 32.3685 31.2523C32.3685 31.1499 32.3347 31.0475 32.2332 31.0475C32.0302 31.0475 32.1993 31.4571 31.8611 31.4571C31.7257 31.4571 31.6242 31.3547 31.6242 31.1841C31.6242 31.0133 31.7257 30.8086 31.7257 30.5696C31.7257 30.0234 31.3874 29.6479 30.9814 29.5455C30.7446 29.4773 30.6093 29.3066 30.6093 29.1018C30.6093 28.8287 30.8123 28.7946 30.9477 28.7946C31.0829 28.7946 31.1845 28.8287 31.1845 28.7263C31.1845 28.6239 31.0829 28.5556 30.8799 28.5556C30.6431 28.5556 30.3048 28.7263 30.3048 29.1018C30.3048 29.2383 30.3387 29.3749 30.474 29.5115C30.1695 29.5797 29.8989 29.8187 29.8989 30.1942C29.8989 30.433 29.9665 30.672 30.1357 30.672C30.3387 30.672 30.1695 30.5014 30.1695 30.2282C30.1695 29.921 30.4401 29.7845 30.7108 29.7845C31.0829 29.7845 31.4212 30.1258 31.4212 30.5696C31.4212 31.0816 31.0153 31.4229 30.3725 31.4229C30.0003 31.4229 29.4591 31.3547 29.0193 30.8427C28.3088 30.0576 27.9028 29.3749 27.9028 28.146C27.9028 26.5758 29.0193 25.2104 30.6431 24.7666C30.9814 24.6643 31.2521 24.357 31.2521 23.9474C31.2521 23.606 31.0491 23.333 30.7108 23.333C30.5755 23.333 30.474 23.3671 30.474 23.4695C30.474 23.5719 30.5755 23.5719 30.6431 23.5719C30.7785 23.5719 30.9477 23.7084 30.9477 23.9474C30.9477 24.2887 30.677 24.4935 30.3725 24.4935C30.0003 24.4935 29.7635 24.2204 29.7635 23.845C29.7635 23.1281 30.6093 22.6503 31.2521 22.343C30.677 22.07 30.474 21.9676 30.0342 21.6262C29.9327 21.5237 29.8989 21.4213 29.8989 21.2849C29.8989 21.1141 30.0003 20.9776 30.1357 20.9776C30.2372 20.9776 30.3048 21.0459 30.3048 21.1483C30.3048 21.2507 30.2372 21.2507 30.2372 21.3189C30.2372 21.3873 30.271 21.4213 30.3387 21.4213C30.4063 21.4213 30.5755 21.3531 30.5755 21.08C30.5755 20.8752 30.4401 20.6704 30.1357 20.6704C29.8312 20.6704 29.5944 20.9093 29.5944 21.2507C29.3576 21.0459 29.0869 20.8069 28.85 20.5338L27.7675 19.3391C27.463 18.9978 27.6321 18.3492 28.0719 18.3492C28.3088 18.3492 28.4102 18.5199 28.4102 18.6564C28.4102 18.9636 28.1058 18.8271 28.1058 18.9978C28.1058 19.066 28.1397 19.1342 28.2411 19.1342C28.478 19.1342 28.7147 18.9636 28.7147 18.6223C28.7147 18.3151 28.4441 18.0419 28.0719 18.0419C27.6321 18.0419 27.3277 18.3833 27.3277 18.8612L26.9894 18.4857C25.5008 16.8472 24.2828 16.1304 23.0988 16.1304C22.6589 16.1304 22.253 16.2669 22.0162 16.4376C21.8132 16.1987 21.7117 16.028 21.5763 15.8232C21.4411 16.028 21.3396 16.1987 21.1365 16.4376C20.8997 16.2669 20.4937 16.1304 20.0539 16.1304C18.8698 16.1304 17.652 16.8472 16.1634 18.4857L15.8251 18.8612C15.8251 18.3833 15.5205 18.0419 15.0807 18.0419C14.7086 18.0419 14.4379 18.3151 14.4379 18.6223C14.4379 18.9636 14.6748 19.1342 14.9116 19.1342C15.0131 19.1342 15.0469 19.066 15.0469 18.9978C15.0469 18.8271 14.7425 18.9636 14.7425 18.6564C14.7425 18.5199 14.8439 18.3492 15.0807 18.3492C15.5205 18.3492 15.6897 18.9978 15.3853 19.3391L14.3027 20.5338C14.0659 20.8069 13.7952 21.0459 13.5583 21.2507C13.5583 20.9093 13.3215 20.6704 13.017 20.6704C12.7126 20.6704 12.5772 20.8752 12.5772 21.08C12.5772 21.3531 12.7464 21.4213 12.8141 21.4213C12.8817 21.4213 12.9156 21.3873 12.9156 21.3189C12.9156 21.2507 12.8478 21.2507 12.8478 21.1483C12.8478 21.0459 12.9156 20.9776 13.017 20.9776C13.1524 20.9776 13.2539 21.1141 13.2539 21.2849C13.2539 21.4213 13.22 21.5237 13.1185 21.6262C12.7126 22.0358 12.4758 22.07 11.9006 22.343C12.5434 22.6503 13.3892 23.1281 13.3892 23.845C13.3892 24.2204 13.1524 24.4935 12.7802 24.4935C12.4758 24.4935 12.2051 24.2887 12.2051 23.9474C12.2051 23.7084 12.3743 23.5719 12.5095 23.5719C12.5772 23.5719 12.6787 23.5719 12.6787 23.4695C12.6787 23.3671 12.5772 23.333 12.4419 23.333C12.1036 23.333 11.9006 23.606 11.9006 23.9474C11.9006 24.357 12.1712 24.6643 12.5095 24.7666C14.1335 25.2445 15.2499 26.5758 15.2499 28.146C15.2499 29.3749 14.8101 30.0234 14.1335 30.8427C13.6937 31.3547 13.1524 31.4229 12.7802 31.4229C12.1374 31.4229 11.7314 31.0816 11.7314 30.5696C11.7314 30.1258 12.0697 29.7845 12.4419 29.7845C12.7126 29.7845 12.9832 29.921 12.9832 30.2282C12.9832 30.5014 12.8141 30.672 13.017 30.672C13.1862 30.672 13.2539 30.433 13.2539 30.1942C13.2539 29.8187 12.9832 29.5797 12.6787 29.5115C12.8141 29.3749 12.8478 29.2383 12.8478 29.1018C12.8478 28.7263 12.5095 28.5556 12.2728 28.5556C12.0697 28.5556 11.9682 28.6239 11.9682 28.7263C11.9682 28.8287 12.0697 28.7946 12.2051 28.7946C12.3404 28.7946 12.5434 28.8287 12.5434 29.1018C12.5434 29.3066 12.408 29.4773 12.1712 29.5455C11.7653 29.6479 11.427 30.0234 11.427 30.5696C11.427 30.8086 11.5285 31.0133 11.5285 31.1841C11.5285 31.3547 11.427 31.4571 11.2916 31.4571C10.9534 31.4571 11.1225 31.0475 10.9195 31.0475C10.818 31.0475 10.7842 31.1499 10.7842 31.2523C10.7842 31.5254 10.9195 31.7643 11.2916 31.7643C11.5285 31.7643 11.7314 31.6278 11.7991 31.3889C12.036 31.6278 12.4419 31.7302 12.8141 31.7302C12.9832 31.7302 13.22 31.6961 13.2877 31.6619C12.1036 32.7543 11.8329 33.3346 11.5623 33.949C11.4946 33.8124 11.3255 33.71 11.1225 33.71C10.7842 33.71 10.6151 33.9149 10.6151 34.2221C10.6151 34.2903 10.6151 34.4951 10.7842 34.4951C10.9195 34.4951 10.8519 34.3587 10.8519 34.2563C10.8519 34.1197 10.9534 34.0173 11.1225 34.0173C11.3931 34.0173 11.4608 34.2563 11.3931 34.6317C11.3593 34.8024 11.3593 35.0072 11.3593 35.1778C11.3593 36.7822 12.5434 37.9428 14.0996 37.9428C14.3365 37.9428 14.5394 37.9087 14.7763 37.8745L15.2499 38.5914C14.9116 38.6938 14.6748 39.001 14.6748 39.3423C14.6748 39.7862 15.0131 40.1274 15.4529 40.1274C15.7236 40.1274 15.9265 39.9909 15.9265 39.8544C15.9265 39.752 15.8588 39.7179 15.7912 39.7179C15.6897 39.7179 15.6897 39.8203 15.4529 39.8203C15.1822 39.8203 14.9793 39.6155 14.9793 39.3423C14.9793 39.0693 15.2161 38.8645 15.5544 38.8645C16.1971 38.8645 16.5017 39.6155 16.9415 40.3664L17.3813 41.1174C18.0918 42.3463 19.242 43.0631 20.1893 43.0631C20.3246 43.0631 20.4599 43.0631 20.5952 43.029C21.0013 43.4386 21.4072 44.1896 21.5763 44.5309C21.7455 44.1896 22.1515 43.4386 22.5575 43.029C22.6928 43.0631 22.8281 43.0631 22.9634 43.0631C23.9107 43.0631 25.061 42.3463 25.7714 41.1174L26.2112 40.3664C26.651 39.6155 26.9555 38.8645 27.5983 38.8645C27.9366 38.8645 28.1734 39.0693 28.1734 39.3423C28.1734 39.6155 27.9704 39.8203 27.6998 39.8203C27.463 39.8203 27.463 39.7179 27.3614 39.7179C27.2938 39.7179 27.2262 39.752 27.2262 39.8544C27.2262 39.9909 27.4292 40.1274 27.6998 40.1274C28.1397 40.1274 28.478 39.7862 28.478 39.3423C28.478 39.001 28.2411 38.6938 27.9028 38.5914L28.3764 37.8745C28.6132 37.9087 28.8163 37.9428 29.053 37.9428C30.6093 37.9428 31.7934 36.7822 31.7934 35.1778C31.7934 35.0072 31.7934 34.8024 31.7595 34.6317C31.6919 34.2563 31.7595 34.0173 32.0302 34.0173C32.1993 34.0173 32.3008 34.1197 32.3008 34.2563C32.3008 34.3587 32.2332 34.4951 32.3685 34.4951C32.5377 34.4951 32.5377 34.2903 32.5377 34.2221C32.5377 33.9149 32.3685 33.71 32.0302 33.71ZM31.1506 39.5813C29.662 41.1174 27.463 42.2097 25.3654 43.2338C23.9784 43.9165 22.6251 44.5992 21.5763 45.4184C20.5276 44.5992 19.1743 43.9165 17.7872 43.2338C15.6897 42.2097 13.4907 41.1174 12.0021 39.5813C10.1076 37.6357 9.1941 35.6558 9.1941 33.4028C9.1941 31.4913 9.93844 29.8869 11.6299 27.7364C11.7653 27.5657 11.9006 27.3951 11.9006 27.2584C11.9006 27.122 11.7653 26.8489 11.6976 26.7124L10.5136 24.118C10.2429 23.5377 9.97221 22.9916 9.97221 22.4113C9.97221 21.9334 10.2768 21.5921 10.6827 21.2507L12.3743 19.7146C12.4419 19.6463 12.4419 19.5439 12.408 19.4756L11.8668 18.3492C11.7991 18.2127 11.7991 18.1103 11.9006 18.0419C13.5583 16.9155 14.9455 16.5741 16.9415 16.028C18.836 15.516 20.5276 15.0721 21.5763 14.3895C22.6251 15.0721 24.3167 15.516 26.2112 16.028C28.2073 16.5741 29.5605 16.9838 31.2521 18.0419C31.3536 18.1103 31.3536 18.2127 31.286 18.3492L30.7446 19.4756C30.7108 19.5439 30.7108 19.6463 30.7785 19.7146L32.47 21.2507C32.876 21.5921 33.1805 21.9334 33.1805 22.4113C33.1805 22.9916 32.9098 23.5377 32.6391 24.118L31.4551 26.7124C31.3874 26.8489 31.2521 27.122 31.2521 27.2584C31.2521 27.3951 31.3874 27.5657 31.5228 27.7364C33.3496 29.7845 33.9586 31.4913 33.9586 33.4028C33.9586 35.6558 33.0452 37.6357 31.1506 39.5813ZM32.7406 27.8388C32.4362 27.4633 32.2671 27.2926 32.2671 27.1561C32.2671 27.0195 32.3685 26.8148 32.47 26.5758L33.485 24.3229C33.7894 23.6402 34.0601 23.0599 34.0601 22.343C34.0601 21.831 33.8571 21.3189 33.3496 20.8752L31.8949 19.6122C31.7595 19.5098 31.7595 19.3391 31.8273 19.2026L32.3685 17.9737C32.4023 17.9055 32.4023 17.803 32.3008 17.7348C30.6431 16.6083 28.7486 15.9256 26.9555 15.4135C25.1624 14.9357 22.7605 14.253 21.5763 13.3313C20.3923 14.253 17.9903 14.9015 16.1971 15.4135C14.4042 15.9256 12.5095 16.6083 10.8519 17.7348C10.7503 17.803 10.7503 17.9055 10.7842 17.9737L11.3255 19.2026C11.3931 19.3391 11.3931 19.5098 11.2578 19.6122L9.8031 20.8752C9.29558 21.3189 9.09261 21.831 9.09261 22.343C9.09261 23.0599 9.3633 23.6402 9.66776 24.3229L10.6827 26.5758C10.7842 26.8148 10.8857 27.0195 10.8857 27.1561C10.8857 27.2926 10.7165 27.4633 10.412 27.8388C8.88964 29.7503 8.28064 31.3205 8.28064 33.4028C8.28064 36.3043 9.70161 38.5232 11.3255 40.1958C12.9832 41.9025 15.2838 43.029 17.3813 44.053C18.7684 44.7357 20.2231 45.4184 21.5763 46.5108C22.9296 45.4184 24.3843 44.7357 25.7714 44.053C27.869 43.029 30.2033 41.9025 31.8273 40.1958C33.4511 38.5232 34.872 36.3043 34.872 33.4028C34.872 31.3205 34.2631 29.7503 32.7406 27.8388Z" fill="#1E2044"/>
</svg>
