<svg width="60" height="60" viewBox="0 0 60 60" fill="none" xmlns="http://www.w3.org/2000/svg">
<rect width="60" height="60" fill="#EA1D25"/>
<path d="M40.5194 28.6313C40.4098 26.9325 39.9715 25.2337 39.0948 23.7614L31.643 10.2843C31.095 9.26506 30.6567 8.13253 30.4375 7L30.1088 7.56627C28.2458 10.8506 28.2458 15.041 30.1088 18.3253L36.136 29.0843C37.9989 32.3687 37.9989 36.559 36.136 39.8434L35.8072 40.4096C35.588 39.2771 35.1497 38.1446 34.6018 37.1253L29.1225 27.2723L25.6158 20.9301C25.0679 19.9108 24.6295 18.7783 24.4103 17.6458L24.0816 18.212C22.2186 21.4964 22.2186 25.5735 24.0816 28.9711L30.1088 39.7301C31.9717 43.0145 31.9717 47.2048 30.1088 50.4892L29.78 51.0554C29.5609 49.9229 29.1225 48.7904 28.5746 47.7711L21.0132 34.294C20.0269 32.4819 19.5886 30.4434 19.5886 28.4048C11.5889 30.5566 6 35.2 6 40.5229C6 47.9976 16.7394 54 29.9992 54C43.259 54 53.9984 47.9976 53.9984 40.5229C54.108 35.4265 48.6287 30.7831 40.5194 28.6313Z" fill="white"/>
</svg>
